solid top
facet normal 0.0 0.0 -1.0
  outer loop
    vertex 37.8 44.6 0.0
    vertex 0.0 0.0 0.0
    vertex 0.0 44.599999999999994 0.0
  endloop
endfacet
facet normal 0.0 0.0 -1.0
  outer loop
    vertex 0.0 0.0 0.0
    vertex 37.8 44.6 0.0
    vertex 37.8 0.0 0.0
  endloop
endfacet
facet normal -1.4920457579618506e-16 1.0 0.0
  outer loop
    vertex 0.0 44.599999999999994 5.5
    vertex 37.8 44.6 0.0
    vertex 0.0 44.599999999999994 0.0
  endloop
endfacet
facet normal -1.4920457579618506e-16 1.0 0.0
  outer loop
    vertex 37.8 44.6 0.0
    vertex 0.0 44.599999999999994 5.5
    vertex 37.8 44.6 5.5
  endloop
endfacet
facet normal -1.4920457579618506e-16 1.0 0.0
  outer loop
    vertex 37.8 44.6 5.5
    vertex 0.0 44.599999999999994 5.5
    vertex 30.8 44.6 5.5
  endloop
endfacet
facet normal 1.0 0.0 0.0
  outer loop
    vertex 37.8 44.6 0.0
    vertex 37.8 0.0 5.5
    vertex 37.8 0.0 0.0
  endloop
endfacet
facet normal 1.0 0.0 0.0
  outer loop
    vertex 37.8 0.0 5.5
    vertex 37.8 44.6 0.0
    vertex 37.8 44.6 5.5
  endloop
endfacet
facet normal -0.0 -1.0 -0.0
  outer loop
    vertex 37.8 0.0 5.5
    vertex 0.0 0.0 0.0
    vertex 37.8 0.0 0.0
  endloop
endfacet
facet normal -0.0 -1.0 -0.0
  outer loop
    vertex 0.0 0.0 0.0
    vertex 37.8 0.0 5.5
    vertex 0.0 0.0 5.5
  endloop
endfacet
facet normal -0.0 -1.0 -0.0
  outer loop
    vertex 0.0 0.0 5.5
    vertex 37.8 0.0 5.5
    vertex 30.8 0.0 5.5
  endloop
endfacet
facet normal -1.0 0.0 0.0
  outer loop
    vertex 0.0 44.599999999999994 5.5
    vertex 0.0 0.0 0.0
    vertex 0.0 0.0 5.5
  endloop
endfacet
facet normal -1.0 0.0 0.0
  outer loop
    vertex 0.0 0.0 0.0
    vertex 0.0 44.599999999999994 5.5
    vertex 0.0 44.599999999999994 0.0
  endloop
endfacet
facet normal -1.982788933041495e-15 -9.017334682565936e-17 1.0
  outer loop
    vertex 19.599999999999998 0.7999999999999985 1.9999999999999998
    vertex 18.0 43.800000000000004 2.0000000000000004
    vertex 17.999999999999996 0.7999999999999985 1.999999999999993
  endloop
endfacet
facet normal -1.982788933041495e-15 -9.017334682565936e-17 1.0
  outer loop
    vertex 18.0 43.800000000000004 2.0000000000000004
    vertex 19.599999999999998 0.7999999999999985 1.9999999999999998
    vertex 19.599999999999998 43.800000000000004 1.9999999999999998
  endloop
endfacet
facet normal 1.0 2.4592730952452594e-17 -8.98728161125489e-33
  outer loop
    vertex 1.7999999999999992 43.800000000000004 1.9999999999999998
    vertex 1.8000000000000003 0.8000000000000002 5.5
    vertex 1.8000000000000003 0.8000000000000002 1.9999999999999998
  endloop
endfacet
facet normal 1.0 2.4592730952452594e-17 -8.98728161125489e-33
  outer loop
    vertex 1.8000000000000003 0.8000000000000002 5.5
    vertex 1.7999999999999992 43.800000000000004 1.9999999999999998
    vertex 1.8000000000000003 0.8000000000000002 8.5
  endloop
endfacet
facet normal 1.0 2.4592730952452594e-17 -8.98728161125489e-33
  outer loop
    vertex 1.8000000000000003 0.8000000000000002 8.5
    vertex 1.7999999999999992 43.800000000000004 1.9999999999999998
    vertex 1.7999999999999992 43.800000000000004 8.5
  endloop
endfacet
facet normal 1.0 2.4592730952452594e-17 -8.98728161125489e-33
  outer loop
    vertex 1.7999999999999992 43.800000000000004 8.5
    vertex 1.7999999999999992 43.800000000000004 1.9999999999999998
    vertex 1.7999999999999992 43.800000000000004 5.5
  endloop
endfacet
facet normal 0.0 -1.0 0.0
  outer loop
    vertex 30.8 43.800000000000004 5.5
    vertex 29.200000000000003 43.800000000000004 1.9999999999999998
    vertex 30.8 43.800000000000004 1.9999999999999998
  endloop
endfacet
facet normal 0.0 -1.0 0.0
  outer loop
    vertex 29.200000000000003 43.800000000000004 1.9999999999999998
    vertex 30.8 43.800000000000004 5.5
    vertex 29.199999999999996 43.800000000000004 5.5
  endloop
endfacet
facet normal -1.0 -0.0 -0.0
  outer loop
    vertex 37.0 43.800000000000004 5.5
    vertex 37.0 0.8000000000000002 1.9999999999999998
    vertex 37.0 0.8000000000000002 5.5
  endloop
endfacet
facet normal -1.0 -0.0 -0.0
  outer loop
    vertex 37.0 0.8000000000000002 1.9999999999999998
    vertex 37.0 43.800000000000004 5.5
    vertex 37.0 43.800000000000004 1.9999999999999998
  endloop
endfacet
facet normal -1.1015494072452825e-16 1.0 5.539219876433366e-16
  outer loop
    vertex 18.0 0.7999999999999964 5.5
    vertex 19.599999999999998 0.7999999999999985 1.9999999999999998
    vertex 17.999999999999996 0.7999999999999985 1.999999999999993
  endloop
endfacet
facet normal -1.1015494072452825e-16 1.0 5.539219876433366e-16
  outer loop
    vertex 19.599999999999998 0.7999999999999985 1.9999999999999998
    vertex 18.0 0.7999999999999964 5.5
    vertex 19.6 0.7999999999999968 5.5
  endloop
endfacet
facet normal -0.0 -0.0 1.0
  outer loop
    vertex 37.8 0.0 5.5
    vertex 30.8 0.7999999999999959 5.5
    vertex 30.8 0.0 5.5
  endloop
endfacet
facet normal -0.0 -0.0 1.0
  outer loop
    vertex 30.8 0.7999999999999959 5.5
    vertex 37.8 0.0 5.5
    vertex 37.0 0.8000000000000002 5.5
  endloop
endfacet
facet normal -0.0 -0.0 1.0
  outer loop
    vertex 37.0 0.8000000000000002 5.5
    vertex 37.8 0.0 5.5
    vertex 37.0 43.800000000000004 5.5
  endloop
endfacet
facet normal -0.0 -0.0 1.0
  outer loop
    vertex 37.0 43.800000000000004 5.5
    vertex 30.8 44.6 5.5
    vertex 30.8 43.800000000000004 5.5
  endloop
endfacet
facet normal -0.0 -0.0 1.0
  outer loop
    vertex 30.8 44.6 5.5
    vertex 37.0 43.800000000000004 5.5
    vertex 37.8 44.6 5.5
  endloop
endfacet
facet normal -0.0 -0.0 1.0
  outer loop
    vertex 37.8 44.6 5.5
    vertex 37.0 43.800000000000004 5.5
    vertex 37.8 0.0 5.5
  endloop
endfacet
facet normal -0.0 -0.0 1.0
  outer loop
    vertex 0.0 0.0 5.5
    vertex 0.8000000000000003 0.8000000000000002 5.5
    vertex 0.0 44.599999999999994 5.5
  endloop
endfacet
facet normal -0.0 -0.0 1.0
  outer loop
    vertex 0.8000000000000003 0.8000000000000002 5.5
    vertex 0.0 0.0 5.5
    vertex 30.8 0.0 5.5
  endloop
endfacet
facet normal -0.0 -0.0 1.0
  outer loop
    vertex 0.8000000000000003 0.8000000000000002 5.5
    vertex 30.8 0.0 5.5
    vertex 1.8000000000000003 0.8000000000000002 5.5
  endloop
endfacet
facet normal -0.0 -0.0 1.0
  outer loop
    vertex 1.8000000000000003 0.8000000000000002 5.5
    vertex 30.8 0.0 5.5
    vertex 18.0 0.7999999999999964 5.5
  endloop
endfacet
facet normal -0.0 -0.0 1.0
  outer loop
    vertex 18.0 0.7999999999999964 5.5
    vertex 30.8 0.0 5.5
    vertex 19.6 0.7999999999999968 5.5
  endloop
endfacet
facet normal -0.0 -0.0 1.0
  outer loop
    vertex 19.6 0.7999999999999968 5.5
    vertex 30.8 0.0 5.5
    vertex 29.199999999999996 0.799999999999996 5.5
  endloop
endfacet
facet normal -0.0 -0.0 1.0
  outer loop
    vertex 29.199999999999996 0.799999999999996 5.5
    vertex 30.8 0.0 5.5
    vertex 30.8 0.7999999999999959 5.5
  endloop
endfacet
facet normal -0.0 -0.0 1.0
  outer loop
    vertex 0.0 44.599999999999994 5.5
    vertex 0.8000000000000003 43.800000000000004 5.5
    vertex 30.8 44.6 5.5
  endloop
endfacet
facet normal -0.0 -0.0 1.0
  outer loop
    vertex 0.8000000000000003 43.800000000000004 5.5
    vertex 0.0 44.599999999999994 5.5
    vertex 0.8000000000000003 0.8000000000000002 5.5
  endloop
endfacet
facet normal -0.0 -0.0 1.0
  outer loop
    vertex 30.8 44.6 5.5
    vertex 0.8000000000000003 43.800000000000004 5.5
    vertex 1.7999999999999992 43.800000000000004 5.5
  endloop
endfacet
facet normal -0.0 -0.0 1.0
  outer loop
    vertex 30.8 44.6 5.5
    vertex 1.7999999999999992 43.800000000000004 5.5
    vertex 18.0 43.800000000000004 5.5
  endloop
endfacet
facet normal -0.0 -0.0 1.0
  outer loop
    vertex 30.8 44.6 5.5
    vertex 18.0 43.800000000000004 5.5
    vertex 19.6 43.800000000000004 5.5
  endloop
endfacet
facet normal -0.0 -0.0 1.0
  outer loop
    vertex 30.8 44.6 5.5
    vertex 19.6 43.800000000000004 5.5
    vertex 29.199999999999996 43.800000000000004 5.5
  endloop
endfacet
facet normal -0.0 -0.0 1.0
  outer loop
    vertex 30.8 44.6 5.5
    vertex 29.199999999999996 43.800000000000004 5.5
    vertex 30.8 43.800000000000004 5.5
  endloop
endfacet
facet normal 0.0 0.0 1.0
  outer loop
    vertex 1.8000000000000003 0.8000000000000002 8.5
    vertex 0.8000000000000003 43.800000000000004 8.5
    vertex 0.8000000000000003 0.8000000000000002 8.5
  endloop
endfacet
facet normal 0.0 0.0 1.0
  outer loop
    vertex 0.8000000000000003 43.800000000000004 8.5
    vertex 1.8000000000000003 0.8000000000000002 8.5
    vertex 1.7999999999999992 43.800000000000004 8.5
  endloop
endfacet
facet normal 0.0 1.0 0.0
  outer loop
    vertex 0.8000000000000003 43.800000000000004 8.5
    vertex 1.7999999999999992 43.800000000000004 5.5
    vertex 0.8000000000000003 43.800000000000004 5.5
  endloop
endfacet
facet normal 0.0 1.0 0.0
  outer loop
    vertex 1.7999999999999992 43.800000000000004 5.5
    vertex 0.8000000000000003 43.800000000000004 8.5
    vertex 1.7999999999999992 43.800000000000004 8.5
  endloop
endfacet
facet normal -1.0 -0.0 -0.0
  outer loop
    vertex 0.8000000000000003 43.800000000000004 8.5
    vertex 0.8000000000000003 0.8000000000000002 5.5
    vertex 0.8000000000000003 0.8000000000000002 8.5
  endloop
endfacet
facet normal -1.0 -0.0 -0.0
  outer loop
    vertex 0.8000000000000003 0.8000000000000002 5.5
    vertex 0.8000000000000003 43.800000000000004 8.5
    vertex 0.8000000000000003 43.800000000000004 5.5
  endloop
endfacet
facet normal 0.0 -1.0 0.0
  outer loop
    vertex 1.8000000000000003 0.8000000000000002 8.5
    vertex 0.8000000000000003 0.8000000000000002 5.5
    vertex 1.8000000000000003 0.8000000000000002 5.5
  endloop
endfacet
facet normal 0.0 -1.0 0.0
  outer loop
    vertex 0.8000000000000003 0.8000000000000002 5.5
    vertex 1.8000000000000003 0.8000000000000002 8.5
    vertex 0.8000000000000003 0.8000000000000002 8.5
  endloop
endfacet
facet normal 0.0 0.0 1.0
  outer loop
    vertex 19.6 0.7999999999999968 8.5
    vertex 18.0 43.800000000000004 8.5
    vertex 18.0 0.7999999999999964 8.5
  endloop
endfacet
facet normal 0.0 0.0 1.0
  outer loop
    vertex 18.0 43.800000000000004 8.5
    vertex 19.6 0.7999999999999968 8.5
    vertex 19.6 43.800000000000004 8.5
  endloop
endfacet
facet normal 2.203098814490545e-16 -1.0 0.0
  outer loop
    vertex 19.6 0.7999999999999968 8.5
    vertex 18.0 0.7999999999999964 5.5
    vertex 19.6 0.7999999999999968 5.5
  endloop
endfacet
facet normal 2.203098814490545e-16 -1.0 0.0
  outer loop
    vertex 18.0 0.7999999999999964 5.5
    vertex 19.6 0.7999999999999968 8.5
    vertex 18.0 0.7999999999999964 8.5
  endloop
endfacet
facet normal 1.0 -0.0 0.0
  outer loop
    vertex 19.6 43.800000000000004 5.5
    vertex 19.6 0.7999999999999968 8.5
    vertex 19.6 0.7999999999999968 5.5
  endloop
endfacet
facet normal 1.0 -0.0 0.0
  outer loop
    vertex 19.6 0.7999999999999968 8.5
    vertex 19.6 43.800000000000004 5.5
    vertex 19.6 43.800000000000004 8.5
  endloop
endfacet
facet normal 0.0 1.0 0.0
  outer loop
    vertex 18.0 43.800000000000004 8.5
    vertex 19.6 43.800000000000004 5.5
    vertex 18.0 43.800000000000004 5.5
  endloop
endfacet
facet normal 0.0 1.0 0.0
  outer loop
    vertex 19.6 43.800000000000004 5.5
    vertex 18.0 43.800000000000004 8.5
    vertex 19.6 43.800000000000004 8.5
  endloop
endfacet
facet normal -1.0 -0.0 -0.0
  outer loop
    vertex 18.0 43.800000000000004 8.5
    vertex 18.0 0.7999999999999964 5.5
    vertex 18.0 0.7999999999999964 8.5
  endloop
endfacet
facet normal -1.0 -0.0 -0.0
  outer loop
    vertex 18.0 0.7999999999999964 5.5
    vertex 18.0 43.800000000000004 8.5
    vertex 18.0 43.800000000000004 5.5
  endloop
endfacet
facet normal 0.0 0.0 1.0
  outer loop
    vertex 30.8 0.7999999999999959 8.5
    vertex 29.199999999999996 43.800000000000004 8.5
    vertex 29.199999999999996 0.799999999999996 8.5
  endloop
endfacet
facet normal 0.0 0.0 1.0
  outer loop
    vertex 29.199999999999996 43.800000000000004 8.5
    vertex 30.8 0.7999999999999959 8.5
    vertex 30.8 43.800000000000004 8.5
  endloop
endfacet
facet normal 0.0 1.0 0.0
  outer loop
    vertex 29.199999999999996 43.800000000000004 8.5
    vertex 30.8 43.800000000000004 5.5
    vertex 29.199999999999996 43.800000000000004 5.5
  endloop
endfacet
facet normal 0.0 1.0 0.0
  outer loop
    vertex 30.8 43.800000000000004 5.5
    vertex 29.199999999999996 43.800000000000004 8.5
    vertex 30.8 43.800000000000004 8.5
  endloop
endfacet
facet normal -1.0 -0.0 -0.0
  outer loop
    vertex 29.199999999999996 43.800000000000004 8.5
    vertex 29.199999999999996 0.799999999999996 5.5
    vertex 29.199999999999996 0.799999999999996 8.5
  endloop
endfacet
facet normal -1.0 -0.0 -0.0
  outer loop
    vertex 29.199999999999996 0.799999999999996 5.5
    vertex 29.199999999999996 43.800000000000004 8.5
    vertex 29.199999999999996 43.800000000000004 5.5
  endloop
endfacet
facet normal -1.1015494072452705e-16 -1.0 -0.0
  outer loop
    vertex 30.8 0.7999999999999959 8.5
    vertex 29.199999999999996 0.799999999999996 5.5
    vertex 30.8 0.7999999999999959 5.5
  endloop
endfacet
facet normal -1.1015494072452705e-16 -1.0 -0.0
  outer loop
    vertex 29.199999999999996 0.799999999999996 5.5
    vertex 30.8 0.7999999999999959 8.5
    vertex 29.199999999999996 0.799999999999996 8.5
  endloop
endfacet
facet normal 1.0 -0.0 0.0
  outer loop
    vertex 30.8 43.800000000000004 5.5
    vertex 30.8 0.7999999999999959 8.5
    vertex 30.8 0.7999999999999959 5.5
  endloop
endfacet
facet normal 1.0 -0.0 0.0
  outer loop
    vertex 30.8 0.7999999999999959 8.5
    vertex 30.8 43.800000000000004 5.5
    vertex 30.8 43.800000000000004 8.5
  endloop
endfacet
facet normal -9.17957839371063e-18 1.0 7.301698928025806e-16
  outer loop
    vertex 19.6 0.7999999999999968 5.5
    vertex 29.200000000000003 0.7999999999999994 1.9999999999999998
    vertex 19.599999999999998 0.7999999999999985 1.9999999999999998
  endloop
endfacet
facet normal -9.17957839371063e-18 1.0 7.301698928025806e-16
  outer loop
    vertex 29.200000000000003 0.7999999999999994 1.9999999999999998
    vertex 19.6 0.7999999999999968 5.5
    vertex 29.199999999999996 0.799999999999996 5.5
  endloop
endfacet
facet normal -0.0 -0.0 1.0
  outer loop
    vertex 30.8 0.7999999999999978 1.9999999999999998
    vertex 29.200000000000003 43.800000000000004 1.9999999999999998
    vertex 29.200000000000003 0.7999999999999994 1.9999999999999998
  endloop
endfacet
facet normal -0.0 -0.0 1.0
  outer loop
    vertex 29.200000000000003 43.800000000000004 1.9999999999999998
    vertex 30.8 0.7999999999999978 1.9999999999999998
    vertex 30.8 43.800000000000004 1.9999999999999998
  endloop
endfacet
facet normal 0.0 -1.0 0.0
  outer loop
    vertex 19.6 43.800000000000004 5.5
    vertex 18.0 43.800000000000004 2.0000000000000004
    vertex 19.599999999999998 43.800000000000004 1.9999999999999998
  endloop
endfacet
facet normal 0.0 -1.0 0.0
  outer loop
    vertex 18.0 43.800000000000004 2.0000000000000004
    vertex 19.6 43.800000000000004 5.5
    vertex 18.0 43.800000000000004 5.5
  endloop
endfacet
facet normal 1.0 1.996807975643513e-34 -8.057047092993993e-16
  outer loop
    vertex 19.599999999999998 0.7999999999999985 1.9999999999999998
    vertex 19.6 43.800000000000004 5.5
    vertex 19.6 0.7999999999999968 5.5
  endloop
endfacet
facet normal 1.0 1.996807975643513e-34 -8.057047092993993e-16
  outer loop
    vertex 19.6 43.800000000000004 5.5
    vertex 19.599999999999998 0.7999999999999985 1.9999999999999998
    vertex 19.599999999999998 43.800000000000004 1.9999999999999998
  endloop
endfacet
facet normal 0.0 -1.0 0.0
  outer loop
    vertex 18.0 43.800000000000004 2.0000000000000004
    vertex 1.7999999999999992 43.800000000000004 5.5
    vertex 1.7999999999999992 43.800000000000004 1.9999999999999998
  endloop
endfacet
facet normal 0.0 -1.0 0.0
  outer loop
    vertex 1.7999999999999992 43.800000000000004 5.5
    vertex 18.0 43.800000000000004 2.0000000000000004
    vertex 18.0 43.800000000000004 5.5
  endloop
endfacet
facet normal 1.9583100573249288e-16 -9.017334682565953e-17 1.0
  outer loop
    vertex 1.8000000000000003 0.8000000000000002 1.9999999999999998
    vertex 18.0 43.800000000000004 2.0000000000000004
    vertex 1.7999999999999992 43.800000000000004 1.9999999999999998
  endloop
endfacet
facet normal 1.9583100573249288e-16 -9.017334682565953e-17 1.0
  outer loop
    vertex 18.0 43.800000000000004 2.0000000000000004
    vertex 1.8000000000000003 0.8000000000000002 1.9999999999999998
    vertex 17.999999999999996 0.7999999999999985 1.999999999999993
  endloop
endfacet
facet normal 1.6319250477707749e-16 1.0 3.0213926598727456e-16
  outer loop
    vertex 1.8000000000000003 0.8000000000000002 1.9999999999999998
    vertex 18.0 0.7999999999999964 5.5
    vertex 17.999999999999996 0.7999999999999985 1.999999999999993
  endloop
endfacet
facet normal 1.6319250477707749e-16 1.0 3.0213926598727456e-16
  outer loop
    vertex 18.0 0.7999999999999964 5.5
    vertex 1.8000000000000003 0.8000000000000002 1.9999999999999998
    vertex 1.8000000000000003 0.8000000000000002 5.5
  endloop
endfacet
facet normal -1.0 6.558061587320684e-17 8.057047092993994e-16
  outer loop
    vertex 18.0 43.800000000000004 5.5
    vertex 17.999999999999996 0.7999999999999985 1.999999999999993
    vertex 18.0 0.7999999999999964 5.5
  endloop
endfacet
facet normal -1.0 6.558061587320684e-17 8.057047092993994e-16
  outer loop
    vertex 17.999999999999996 0.7999999999999985 1.999999999999993
    vertex 18.0 43.800000000000004 5.5
    vertex 18.0 43.800000000000004 2.0000000000000004
  endloop
endfacet
facet normal 0.0 -1.0 0.0
  outer loop
    vertex 29.199999999999996 43.800000000000004 5.5
    vertex 19.599999999999998 43.800000000000004 1.9999999999999998
    vertex 29.200000000000003 43.800000000000004 1.9999999999999998
  endloop
endfacet
facet normal 0.0 -1.0 0.0
  outer loop
    vertex 19.599999999999998 43.800000000000004 1.9999999999999998
    vertex 29.199999999999996 43.800000000000004 5.5
    vertex 19.6 43.800000000000004 5.5
  endloop
endfacet
facet normal -0.0 -0.0 1.0
  outer loop
    vertex 29.200000000000003 0.7999999999999994 1.9999999999999998
    vertex 19.599999999999998 43.800000000000004 1.9999999999999998
    vertex 19.599999999999998 0.7999999999999985 1.9999999999999998
  endloop
endfacet
facet normal -0.0 -0.0 1.0
  outer loop
    vertex 19.599999999999998 43.800000000000004 1.9999999999999998
    vertex 29.200000000000003 0.7999999999999994 1.9999999999999998
    vertex 29.200000000000003 43.800000000000004 1.9999999999999998
  endloop
endfacet
facet normal 5.507747036226355e-16 1.0 7.553481649681874e-16
  outer loop
    vertex 29.199999999999996 0.799999999999996 5.5
    vertex 30.8 0.7999999999999978 1.9999999999999998
    vertex 29.200000000000003 0.7999999999999994 1.9999999999999998
  endloop
endfacet
facet normal 5.507747036226355e-16 1.0 7.553481649681874e-16
  outer loop
    vertex 30.8 0.7999999999999978 1.9999999999999998
    vertex 29.199999999999996 0.799999999999996 5.5
    vertex 30.8 0.7999999999999959 5.5
  endloop
endfacet
facet normal -1.0 -3.901455583180416e-33 -1.6114094185987988e-15
  outer loop
    vertex 29.199999999999996 43.800000000000004 5.5
    vertex 29.200000000000003 0.7999999999999994 1.9999999999999998
    vertex 29.199999999999996 0.799999999999996 5.5
  endloop
endfacet
facet normal -1.0 -3.901455583180416e-33 -1.6114094185987988e-15
  outer loop
    vertex 29.200000000000003 0.7999999999999994 1.9999999999999998
    vertex 29.199999999999996 43.800000000000004 5.5
    vertex 29.200000000000003 43.800000000000004 1.9999999999999998
  endloop
endfacet
facet normal -5.25901007330001e-16 1.0 2.7696099382166854e-16
  outer loop
    vertex 30.8 0.7999999999999959 5.5
    vertex 37.0 0.8000000000000002 1.9999999999999998
    vertex 30.8 0.7999999999999978 1.9999999999999998
  endloop
endfacet
facet normal -5.25901007330001e-16 1.0 2.7696099382166854e-16
  outer loop
    vertex 37.0 0.8000000000000002 1.9999999999999998
    vertex 30.8 0.7999999999999959 5.5
    vertex 37.0 0.8000000000000002 5.5
  endloop
endfacet
facet normal -0.0 -0.0 1.0
  outer loop
    vertex 37.0 0.8000000000000002 1.9999999999999998
    vertex 30.8 43.800000000000004 1.9999999999999998
    vertex 30.8 0.7999999999999978 1.9999999999999998
  endloop
endfacet
facet normal -0.0 -0.0 1.0
  outer loop
    vertex 30.8 43.800000000000004 1.9999999999999998
    vertex 37.0 0.8000000000000002 1.9999999999999998
    vertex 37.0 43.800000000000004 1.9999999999999998
  endloop
endfacet
facet normal 0.0 -1.0 0.0
  outer loop
    vertex 37.0 43.800000000000004 5.5
    vertex 30.8 43.800000000000004 1.9999999999999998
    vertex 37.0 43.800000000000004 1.9999999999999998
  endloop
endfacet
facet normal 0.0 -1.0 0.0
  outer loop
    vertex 30.8 43.800000000000004 1.9999999999999998
    vertex 37.0 43.800000000000004 5.5
    vertex 30.8 43.800000000000004 5.5
  endloop
endfacet
facet normal 1.0 -0.0 -0.0
  outer loop
    vertex 30.8 0.7999999999999978 1.9999999999999998
    vertex 30.8 43.800000000000004 5.5
    vertex 30.8 0.7999999999999959 5.5
  endloop
endfacet
facet normal 1.0 -0.0 -0.0
  outer loop
    vertex 30.8 43.800000000000004 5.5
    vertex 30.8 0.7999999999999978 1.9999999999999998
    vertex 30.8 43.800000000000004 1.9999999999999998
  endloop
endfacet
endsolid top
